<svg id="visual" viewBox="0 0 900 600" width="900" height="600" xmlns="http://www.w3.org/2000/svg" xmlns:xlink="http://www.w3.org/1999/xlink" version="1.1"><rect width="900" height="600" fill="#C62368"></rect><g><g transform="translate(773 35)"><path d="M0 -109.1L70.1 -83.6L107.5 -18.9L94.5 54.6L37.3 102.5L-37.3 102.5L-94.5 54.6L-107.5 -18.9L-70.1 -83.6Z" fill="#FFFFFF"></path></g><g transform="translate(612 592)"><path d="M0 -81L52.1 -62L79.8 -14.1L70.1 40.5L27.7 76.1L-27.7 76.1L-70.1 40.5L-79.8 -14.1L-52.1 -62Z" fill="#FFFFFF"></path></g><g transform="translate(395 355)"><path d="M0 -102L65.6 -78.1L100.5 -17.7L88.3 51L34.9 95.8L-34.9 95.8L-88.3 51L-100.5 -17.7L-65.6 -78.1Z" fill="#FFFFFF"></path></g><g transform="translate(857 438)"><path d="M0 -107L68.8 -82L105.4 -18.6L92.7 53.5L36.6 100.5L-36.6 100.5L-92.7 53.5L-105.4 -18.6L-68.8 -82Z" fill="#FFFFFF"></path></g><g transform="translate(205 514)"><path d="M0 -83L53.4 -63.6L81.7 -14.4L71.9 41.5L28.4 78L-28.4 78L-71.9 41.5L-81.7 -14.4L-53.4 -63.6Z" fill="#FFFFFF"></path></g><g transform="translate(4 104)"><path d="M0 -82L52.7 -62.8L80.8 -14.2L71 41L28 77.1L-28 77.1L-71 41L-80.8 -14.2L-52.7 -62.8Z" fill="#FFFFFF"></path></g><g transform="translate(190 225)"><path d="M0 -92L59.1 -70.5L90.6 -16L79.7 46L31.5 86.5L-31.5 86.5L-79.7 46L-90.6 -16L-59.1 -70.5Z" fill="#FFFFFF"></path></g></g></svg>