<svg id="visual" viewBox="0 0 900 600" width="900" height="600" xmlns="http://www.w3.org/2000/svg" xmlns:xlink="http://www.w3.org/1999/xlink" version="1.1"><rect x="0" y="0" width="900" height="600" fill="#002233"></rect><path d="M193 0L191 14.3C189 28.7 185 57.3 175.5 85.8C166 114.3 151 142.7 147.2 171.2C143.3 199.7 150.7 228.3 174.2 257C197.7 285.7 237.3 314.3 244.8 343C252.3 371.7 227.7 400.3 210 428.8C192.3 457.3 181.7 485.7 186.8 514.2C192 542.7 213 571.3 223.5 585.7L234 600L0 600L0 585.7C0 571.3 0 542.7 0 514.2C0 485.7 0 457.3 0 428.8C0 400.3 0 371.7 0 343C0 314.3 0 285.7 0 257C0 228.3 0 199.7 0 171.2C0 142.7 0 114.3 0 85.8C0 57.3 0 28.7 0 14.3L0 0Z" fill="#0066FF" stroke-linecap="round" stroke-linejoin="miter"></path></svg>