<svg id="visual" viewBox="0 0 900 600" width="900" height="600" xmlns="http://www.w3.org/2000/svg" xmlns:xlink="http://www.w3.org/1999/xlink" version="1.1"><path d="M0 97L8.3 106C16.7 115 33.3 133 50 155C66.7 177 83.3 203 100 205C116.7 207 133.3 185 150 189C166.7 193 183.3 223 200 224C216.7 225 233.3 197 250 197C266.7 197 283.3 225 300 216C316.7 207 333.3 161 350 141C366.7 121 383.3 127 400 131C416.7 135 433.3 137 450 140C466.7 143 483.3 147 500 144C516.7 141 533.3 131 550 138C566.7 145 583.3 169 600 177C616.7 185 633.3 177 650 175C666.7 173 683.3 177 700 180C716.7 183 733.3 185 750 186C766.7 187 783.3 187 800 187C816.7 187 833.3 187 850 176C866.7 165 883.3 143 891.7 132L900 121L900 0L891.7 0C883.3 0 866.7 0 850 0C833.3 0 816.7 0 800 0C783.3 0 766.7 0 750 0C733.3 0 716.7 0 700 0C683.3 0 666.7 0 650 0C633.3 0 616.7 0 600 0C583.3 0 566.7 0 550 0C533.3 0 516.7 0 500 0C483.3 0 466.7 0 450 0C433.3 0 416.7 0 400 0C383.3 0 366.7 0 350 0C333.3 0 316.7 0 300 0C283.3 0 266.7 0 250 0C233.3 0 216.7 0 200 0C183.3 0 166.7 0 150 0C133.3 0 116.7 0 100 0C83.3 0 66.7 0 50 0C33.3 0 16.7 0 8.3 0L0 0Z" fill="#6198ff"></path><path d="M0 175L8.3 184C16.7 193 33.3 211 50 241C66.7 271 83.3 313 100 314C116.7 315 133.3 275 150 275C166.7 275 183.3 315 200 328C216.7 341 233.3 327 250 322C266.7 317 283.3 321 300 306C316.7 291 333.3 257 350 242C366.7 227 383.3 231 400 235C416.7 239 433.3 243 450 248C466.7 253 483.3 259 500 253C516.7 247 533.3 229 550 230C566.7 231 583.3 251 600 257C616.7 263 633.3 255 650 255C666.7 255 683.3 263 700 274C716.7 285 733.3 299 750 308C766.7 317 783.3 321 800 323C816.7 325 833.3 325 850 307C866.7 289 883.3 253 891.7 235L900 217L900 119L891.7 130C883.3 141 866.7 163 850 174C833.3 185 816.7 185 800 185C783.3 185 766.7 185 750 184C733.3 183 716.7 181 700 178C683.3 175 666.7 171 650 173C633.3 175 616.7 183 600 175C583.3 167 566.7 143 550 136C533.3 129 516.7 139 500 142C483.3 145 466.7 141 450 138C433.3 135 416.7 133 400 129C383.3 125 366.7 119 350 139C333.3 159 316.7 205 300 214C283.3 223 266.7 195 250 195C233.3 195 216.7 223 200 222C183.3 221 166.7 191 150 187C133.3 183 116.7 205 100 203C83.3 201 66.7 175 50 153C33.3 131 16.7 113 8.3 104L0 95Z" fill="#3c80ff"></path><path d="M0 283L8.3 282C16.7 281 33.3 279 50 300C66.7 321 83.3 365 100 374C116.7 383 133.3 357 150 359C166.7 361 183.3 391 200 400C216.7 409 233.3 397 250 392C266.7 387 283.3 389 300 382C316.7 375 333.3 359 350 353C366.7 347 383.3 351 400 350C416.7 349 433.3 343 450 347C466.7 351 483.3 365 500 357C516.7 349 533.3 319 550 310C566.7 301 583.3 313 600 314C616.7 315 633.3 305 650 310C666.7 315 683.3 335 700 357C716.7 379 733.3 403 750 415C766.7 427 783.3 427 800 422C816.7 417 833.3 407 850 381C866.7 355 883.3 313 891.7 292L900 271L900 215L891.7 233C883.3 251 866.7 287 850 305C833.3 323 816.7 323 800 321C783.3 319 766.7 315 750 306C733.3 297 716.7 283 700 272C683.3 261 666.7 253 650 253C633.3 253 616.7 261 600 255C583.3 249 566.7 229 550 228C533.3 227 516.7 245 500 251C483.3 257 466.7 251 450 246C433.3 241 416.7 237 400 233C383.3 229 366.7 225 350 240C333.3 255 316.7 289 300 304C283.3 319 266.7 315 250 320C233.3 325 216.7 339 200 326C183.3 313 166.7 273 150 273C133.3 273 116.7 313 100 312C83.3 311 66.7 269 50 239C33.3 209 16.7 191 8.3 182L0 173Z" fill="#0066ff"></path><path d="M0 511L8.3 510C16.7 509 33.3 507 50 509C66.7 511 83.3 517 100 519C116.7 521 133.3 519 150 525C166.7 531 183.3 545 200 551C216.7 557 233.3 555 250 553C266.7 551 283.3 549 300 549C316.7 549 333.3 551 350 551C366.7 551 383.3 549 400 547C416.7 545 433.3 543 450 540C466.7 537 483.3 533 500 532C516.7 531 533.3 533 550 535C566.7 537 583.3 539 600 538C616.7 537 633.3 533 650 531C666.7 529 683.3 529 700 533C716.7 537 733.3 545 750 547C766.7 549 783.3 545 800 543C816.7 541 833.3 541 850 538C866.7 535 883.3 529 891.7 526L900 523L900 269L891.7 290C883.3 311 866.7 353 850 379C833.3 405 816.7 415 800 420C783.3 425 766.7 425 750 413C733.3 401 716.7 377 700 355C683.3 333 666.7 313 650 308C633.3 303 616.7 313 600 312C583.3 311 566.7 299 550 308C533.3 317 516.7 347 500 355C483.3 363 466.7 349 450 345C433.3 341 416.7 347 400 348C383.3 349 366.7 345 350 351C333.3 357 316.7 373 300 380C283.3 387 266.7 385 250 390C233.3 395 216.7 407 200 398C183.3 389 166.7 359 150 357C133.3 355 116.7 381 100 372C83.3 363 66.7 319 50 298C33.3 277 16.7 279 8.3 280L0 281Z" fill="#0059dd"></path><path d="M0 601L8.3 601C16.7 601 33.3 601 50 601C66.7 601 83.3 601 100 601C116.7 601 133.3 601 150 601C166.7 601 183.3 601 200 601C216.7 601 233.3 601 250 601C266.7 601 283.3 601 300 601C316.7 601 333.3 601 350 601C366.7 601 383.3 601 400 601C416.7 601 433.3 601 450 601C466.7 601 483.3 601 500 601C516.7 601 533.3 601 550 601C566.7 601 583.3 601 600 601C616.7 601 633.3 601 650 601C666.7 601 683.3 601 700 601C716.7 601 733.3 601 750 601C766.7 601 783.3 601 800 601C816.7 601 833.3 601 850 601C866.7 601 883.3 601 891.7 601L900 601L900 521L891.7 524C883.3 527 866.7 533 850 536C833.3 539 816.7 539 800 541C783.3 543 766.7 547 750 545C733.3 543 716.7 535 700 531C683.3 527 666.7 527 650 529C633.3 531 616.7 535 600 536C583.3 537 566.7 535 550 533C533.3 531 516.7 529 500 530C483.3 531 466.7 535 450 538C433.3 541 416.7 543 400 545C383.3 547 366.7 549 350 549C333.3 549 316.7 547 300 547C283.3 547 266.7 549 250 551C233.3 553 216.7 555 200 549C183.3 543 166.7 529 150 523C133.3 517 116.7 519 100 517C83.3 515 66.7 509 50 507C33.3 505 16.7 507 8.3 508L0 509Z" fill="#004cbb"></path></svg>